G04*
G04 #@! TF.GenerationSoftware,Altium Limited,Altium Designer,21.4.1 (30)*
G04*
G04 Layer_Color=65535*
%FSAX44Y44*%
%MOMM*%
G71*
G04*
G04 #@! TF.SameCoordinates,5515323D-6680-48E9-B7F0-251E336EA752*
G04*
G04*
G04 #@! TF.FilePolarity,Positive*
G04*
G01*
G75*
%ADD10C,0.1500*%
D10*
X00139252Y00140059D02*
X00144584Y00136250D01*
Y00141963D01*
X00139252Y00140059D02*
X00147250D01*
X00146488Y00143753D02*
X00146869Y00143372D01*
X00147250Y00143753D01*
X00146869Y00144134D01*
X00146488Y00143753D01*
X00139252Y00150456D02*
Y00146648D01*
X00142680Y00146267D01*
X00142299Y00146648D01*
X00141918Y00147790D01*
Y00148933D01*
X00142299Y00150076D01*
X00143060Y00150837D01*
X00144203Y00151218D01*
X00144965D01*
X00146107Y00150837D01*
X00146869Y00150076D01*
X00147250Y00148933D01*
Y00147790D01*
X00146869Y00146648D01*
X00146488Y00146267D01*
X00145726Y00145886D01*
X00139252Y00153008D02*
X00147250Y00156055D01*
X00139252Y00159102D02*
X00147250Y00156055D01*
X00140394Y00170985D02*
X00139633Y00170604D01*
X00139252Y00169462D01*
Y00168700D01*
X00139633Y00167558D01*
X00140775Y00166796D01*
X00142680Y00166415D01*
X00144584D01*
X00146107Y00166796D01*
X00146869Y00167558D01*
X00147250Y00168700D01*
Y00169081D01*
X00146869Y00170224D01*
X00146107Y00170985D01*
X00144965Y00171366D01*
X00144584D01*
X00143441Y00170985D01*
X00142680Y00170224D01*
X00142299Y00169081D01*
Y00168700D01*
X00142680Y00167558D01*
X00143441Y00166796D01*
X00144584Y00166415D01*
X00146488Y00173499D02*
X00146869Y00173118D01*
X00147250Y00173499D01*
X00146869Y00173880D01*
X00146488Y00173499D01*
X00139252Y00177536D02*
X00139633Y00176394D01*
X00140394Y00176013D01*
X00141156D01*
X00141918Y00176394D01*
X00142299Y00177156D01*
X00142680Y00178679D01*
X00143060Y00179822D01*
X00143822Y00180583D01*
X00144584Y00180964D01*
X00145726D01*
X00146488Y00180583D01*
X00146869Y00180203D01*
X00147250Y00179060D01*
Y00177536D01*
X00146869Y00176394D01*
X00146488Y00176013D01*
X00145726Y00175632D01*
X00144584D01*
X00143822Y00176013D01*
X00143060Y00176775D01*
X00142680Y00177917D01*
X00142299Y00179441D01*
X00141918Y00180203D01*
X00141156Y00180583D01*
X00140394D01*
X00139633Y00180203D01*
X00139252Y00179060D01*
Y00177536D01*
Y00186563D02*
X00144584Y00182754D01*
Y00188467D01*
X00139252Y00186563D02*
X00147250D01*
X00139252Y00189877D02*
X00147250Y00191781D01*
X00139252Y00193685D02*
X00147250Y00191781D01*
X00139252Y00193685D02*
X00147250Y00195590D01*
X00139252Y00197494D02*
X00147250Y00195590D01*
X00004275Y00107500D02*
X00003894Y00108262D01*
X00002752Y00109404D01*
X00010750D01*
X00009988Y00113746D02*
X00010369Y00113365D01*
X00010750Y00113746D01*
X00010369Y00114127D01*
X00009988Y00113746D01*
X00002752Y00120450D02*
Y00116641D01*
X00006180Y00116260D01*
X00005799Y00116641D01*
X00005418Y00117783D01*
Y00118926D01*
X00005799Y00120069D01*
X00006560Y00120830D01*
X00007703Y00121211D01*
X00008465D01*
X00009607Y00120830D01*
X00010369Y00120069D01*
X00010750Y00118926D01*
Y00117783D01*
X00010369Y00116641D01*
X00009988Y00116260D01*
X00009226Y00115879D01*
X00004656Y00123382D02*
X00004275D01*
X00003513Y00123763D01*
X00003133Y00124144D01*
X00002752Y00124906D01*
Y00126429D01*
X00003133Y00127191D01*
X00003513Y00127572D01*
X00004275Y00127953D01*
X00005037D01*
X00005799Y00127572D01*
X00006941Y00126810D01*
X00010750Y00123001D01*
Y00128334D01*
Y00136218D02*
X00002752Y00133171D01*
X00010750Y00130124D01*
X00008084Y00131266D02*
Y00135075D01*
X00004656Y00144749D02*
X00004275D01*
X00003513Y00145130D01*
X00003133Y00145511D01*
X00002752Y00146273D01*
Y00147796D01*
X00003133Y00148558D01*
X00003513Y00148939D01*
X00004275Y00149320D01*
X00005037D01*
X00005799Y00148939D01*
X00006941Y00148177D01*
X00010750Y00144368D01*
Y00149700D01*
X00009988Y00151871D02*
X00010369Y00151491D01*
X00010750Y00151871D01*
X00010369Y00152252D01*
X00009988Y00151871D01*
X00005418Y00158956D02*
X00006560Y00158575D01*
X00007322Y00157813D01*
X00007703Y00156670D01*
Y00156290D01*
X00007322Y00155147D01*
X00006560Y00154385D01*
X00005418Y00154004D01*
X00005037D01*
X00003894Y00154385D01*
X00003133Y00155147D01*
X00002752Y00156290D01*
Y00156670D01*
X00003133Y00157813D01*
X00003894Y00158575D01*
X00005418Y00158956D01*
X00007322D01*
X00009226Y00158575D01*
X00010369Y00157813D01*
X00010750Y00156670D01*
Y00155909D01*
X00010369Y00154766D01*
X00009607Y00154385D01*
X00003894Y00165697D02*
X00003133Y00165316D01*
X00002752Y00164174D01*
Y00163412D01*
X00003133Y00162269D01*
X00004275Y00161507D01*
X00006180Y00161127D01*
X00008084D01*
X00009607Y00161507D01*
X00010369Y00162269D01*
X00010750Y00163412D01*
Y00163793D01*
X00010369Y00164935D01*
X00009607Y00165697D01*
X00008465Y00166078D01*
X00008084D01*
X00006941Y00165697D01*
X00006180Y00164935D01*
X00005799Y00163793D01*
Y00163412D01*
X00006180Y00162269D01*
X00006941Y00161507D01*
X00008084Y00161127D01*
X00002752Y00170115D02*
X00003133Y00169353D01*
X00003894Y00168592D01*
X00004656Y00168211D01*
X00005799Y00167830D01*
X00007703D01*
X00008846Y00168211D01*
X00009607Y00168592D01*
X00010369Y00169353D01*
X00010750Y00170115D01*
Y00171639D01*
X00010369Y00172400D01*
X00009607Y00173162D01*
X00008846Y00173543D01*
X00007703Y00173924D01*
X00005799D01*
X00004656Y00173543D01*
X00003894Y00173162D01*
X00003133Y00172400D01*
X00002752Y00171639D01*
Y00170115D01*
Y00175790D02*
X00010750D01*
X00006941D02*
X00005799Y00176933D01*
X00005418Y00177694D01*
Y00178837D01*
X00005799Y00179599D01*
X00006941Y00179980D01*
X00010750D01*
X00005418Y00182075D02*
X00010750D01*
X00006941D02*
X00005799Y00183217D01*
X00005418Y00183979D01*
Y00185121D01*
X00005799Y00185883D01*
X00006941Y00186264D01*
X00010750D01*
X00006941D02*
X00005799Y00187407D01*
X00005418Y00188169D01*
Y00189311D01*
X00005799Y00190073D01*
X00006941Y00190454D01*
X00010750D01*
X00006560Y00197157D02*
X00005799Y00196776D01*
X00005418Y00195634D01*
Y00194491D01*
X00005799Y00193348D01*
X00006560Y00192967D01*
X00007322Y00193348D01*
X00007703Y00194110D01*
X00008084Y00196014D01*
X00008465Y00196776D01*
X00009226Y00197157D01*
X00009607D01*
X00010369Y00196776D01*
X00010750Y00195634D01*
Y00194491D01*
X00010369Y00193348D01*
X00009607Y00192967D01*
M02*
