G04*
G04 #@! TF.GenerationSoftware,Altium Limited,Altium Designer,21.4.1 (30)*
G04*
G04 Layer_Color=8388736*
%FSAX44Y44*%
%MOMM*%
G71*
G04*
G04 #@! TF.SameCoordinates,FC3D4518-3266-49AB-992B-672722C8420D*
G04*
G04*
G04 #@! TF.FilePolarity,Negative*
G04*
G01*
G75*
%ADD12O,1.2032X1.7032*%
%ADD13C,0.4572*%
D12*
X00192000Y00010500D02*
D03*
X00008000D02*
D03*
D13*
X00183000Y00005250D02*
Y00195250D01*
X00178750Y00005250D02*
Y00195250D01*
X00174500Y00005250D02*
Y00195250D01*
X00170250Y00005250D02*
Y00195250D01*
X00166000Y00005250D02*
Y00195250D01*
X00161750Y00005250D02*
Y00195250D01*
X00157500Y00005250D02*
Y00195250D01*
X00153250Y00005250D02*
Y00195250D01*
X00085250Y00005250D02*
Y00195250D01*
X00089500Y00005250D02*
Y00195250D01*
X00093750Y00005250D02*
Y00195250D01*
X00098000Y00005250D02*
Y00195250D01*
X00115000Y00005250D02*
Y00195250D01*
X00110750Y00005250D02*
Y00195250D01*
X00106500Y00005250D02*
Y00195250D01*
X00102250Y00005250D02*
Y00195250D01*
X00136250Y00005250D02*
Y00195250D01*
X00140500Y00005250D02*
Y00195250D01*
X00144750Y00005250D02*
Y00195250D01*
X00149000Y00005250D02*
Y00195250D01*
X00132000Y00005250D02*
Y00195250D01*
X00127750Y00005250D02*
Y00195250D01*
X00123500Y00005250D02*
Y00195250D01*
X00119250Y00005250D02*
Y00195250D01*
X00051250Y00005250D02*
Y00195250D01*
X00055500Y00005250D02*
Y00195250D01*
X00059750Y00005250D02*
Y00195250D01*
X00064000Y00005250D02*
Y00195250D01*
X00081000Y00005250D02*
Y00195250D01*
X00076750Y00005250D02*
Y00195250D01*
X00072500Y00005250D02*
Y00195250D01*
X00068250Y00005250D02*
Y00195250D01*
X00034250Y00005250D02*
Y00195250D01*
X00038500Y00005250D02*
Y00195250D01*
X00042750Y00005250D02*
Y00195250D01*
X00047000Y00005250D02*
Y00195250D01*
X00030000Y00005250D02*
Y00195250D01*
X00025750Y00005250D02*
Y00195250D01*
X00021500Y00005250D02*
Y00195250D01*
X00017250Y00005250D02*
Y00195250D01*
M02*
