G04*
G04 #@! TF.GenerationSoftware,Altium Limited,Altium Designer,21.4.1 (30)*
G04*
G04 Layer_Color=8388736*
%FSAX44Y44*%
%MOMM*%
G71*
G04*
G04 #@! TF.SameCoordinates,300F7DDE-1E85-4507-BB81-479D1E03A725*
G04*
G04*
G04 #@! TF.FilePolarity,Negative*
G04*
G01*
G75*
%ADD12O,1.2032X1.7032*%
%ADD13C,0.4032*%
D12*
X00008000Y00010500D02*
D03*
X00192000D02*
D03*
D13*
X00192250Y00018000D02*
Y00070578D01*
X00178172Y00071750D02*
X00191078D01*
X00177000Y00070578D02*
X00178172Y00071750D01*
X00191078D02*
X00192250Y00070578D01*
X00177000Y00016000D02*
Y00070578D01*
X00023250Y00016000D02*
Y00070578D01*
X00008000D02*
X00009172Y00071750D01*
X00022078D02*
X00023250Y00070578D01*
X00009172Y00071750D02*
X00022078D01*
X00008000Y00018000D02*
Y00070578D01*
X00027000Y00016000D02*
Y00196000D01*
X00023250Y00016000D02*
X00027000D01*
X00087000Y00196000D02*
X00090750D01*
X00034500Y00016000D02*
Y00196000D01*
X00038250D01*
Y00016000D02*
Y00196000D01*
X00049500Y00016000D02*
Y00196000D01*
X00053250D01*
Y00016000D02*
Y00196000D01*
X00068250Y00016000D02*
Y00196000D01*
X00064500D02*
X00068250D01*
X00064500Y00016000D02*
Y00196000D01*
X00079500Y00016000D02*
Y00196000D01*
X00083250D01*
X00030750Y00016000D02*
X00034500D01*
X00038250D02*
X00042000D01*
X00053250D02*
X00057000D01*
X00045750D02*
X00049500D01*
X00075750D02*
X00079500D01*
X00083250D02*
X00087000D01*
X00068250D02*
X00072000D01*
X00060750D02*
X00064500D01*
X00105750D02*
X00109500D01*
X00113250D02*
X00117000D01*
X00098250D02*
X00102000D01*
X00090750D02*
X00094500D01*
X00135750D02*
X00139500D01*
X00143250D02*
X00147000D01*
X00128250D02*
X00132000D01*
X00120750D02*
X00124500D01*
X00165750D02*
X00169500D01*
X00173250D02*
X00177000D01*
X00158250D02*
X00162000D01*
X00150750D02*
X00154500D01*
X00147000Y00196000D02*
X00150750D01*
X00154500D02*
X00158250D01*
X00169500D02*
X00173250D01*
X00162000D02*
X00165750D01*
X00117000D02*
X00120750D01*
X00124500D02*
X00128250D01*
X00139500D02*
X00143250D01*
X00132000D02*
X00135750D01*
X00094500D02*
X00098250D01*
X00109500D02*
X00113250D01*
X00102000D02*
X00105750D01*
X00057000D02*
X00060750D01*
X00072000D02*
X00075750D01*
X00042000D02*
X00045750D01*
X00027000D02*
X00030750D01*
X00147000Y00016000D02*
Y00196000D01*
X00150750Y00016000D02*
Y00196000D01*
X00158250Y00016000D02*
Y00196000D01*
X00154500Y00016000D02*
Y00196000D01*
X00169500Y00016000D02*
Y00196000D01*
X00173250Y00016000D02*
Y00196000D01*
X00165750Y00016000D02*
Y00196000D01*
X00162000Y00016000D02*
Y00196000D01*
X00087000Y00016000D02*
Y00196000D01*
X00090750Y00016000D02*
Y00196000D01*
X00098250Y00016000D02*
Y00196000D01*
X00094500Y00016000D02*
Y00196000D01*
X00109500Y00016000D02*
Y00196000D01*
X00113250Y00016000D02*
Y00196000D01*
X00105750Y00016000D02*
Y00196000D01*
X00102000Y00016000D02*
Y00196000D01*
X00132000Y00016000D02*
Y00196000D01*
X00135750Y00016000D02*
Y00196000D01*
X00143250Y00016000D02*
Y00196000D01*
X00139500Y00016000D02*
Y00196000D01*
X00124500Y00016000D02*
Y00196000D01*
X00128250Y00016000D02*
Y00196000D01*
X00120750Y00016000D02*
Y00196000D01*
X00117000Y00016000D02*
Y00196000D01*
X00057000Y00016000D02*
Y00196000D01*
X00060750Y00016000D02*
Y00196000D01*
X00083250Y00016000D02*
Y00196000D01*
X00075750Y00016000D02*
Y00196000D01*
X00072000Y00016000D02*
Y00196000D01*
X00042000Y00016000D02*
Y00196000D01*
X00045750Y00016000D02*
Y00196000D01*
X00030750Y00016000D02*
Y00196000D01*
M02*
