G04*
G04 #@! TF.GenerationSoftware,Altium Limited,Altium Designer,21.4.1 (30)*
G04*
G04 Layer_Color=8388736*
%FSAX44Y44*%
%MOMM*%
G71*
G04*
G04 #@! TF.SameCoordinates,5515323D-6680-48E9-B7F0-251E336EA752*
G04*
G04*
G04 #@! TF.FilePolarity,Negative*
G04*
G01*
G75*
%ADD12O,1.2032X1.7032*%
%ADD13C,0.3552*%
D12*
X00008000Y00010500D02*
D03*
X00142000D02*
D03*
D13*
X00015000Y00065640D02*
Y00194110D01*
X00015890Y00195000D02*
X00018250D01*
X00007890Y00064750D02*
X00014110D01*
X00007000Y00063860D02*
X00007890Y00064750D01*
X00007000Y00052140D02*
Y00063860D01*
X00014110Y00064750D02*
X00015000Y00065640D01*
Y00194110D02*
X00015890Y00195000D01*
X00134360Y00195000D02*
X00135250Y00194109D01*
X00132000Y00195000D02*
X00134360D01*
X00135250Y00065640D02*
X00136140Y00064750D01*
X00135250Y00065640D02*
Y00194109D01*
X00136140Y00064750D02*
X00142110D01*
X00143000Y00063860D01*
Y00052140D02*
Y00063860D01*
X00132000Y00015000D02*
X00132000Y00195000D01*
X00135250Y00036640D02*
X00136140Y00035750D01*
X00141610D02*
X00142500Y00034859D01*
X00135250Y00039609D02*
X00136140Y00040500D01*
Y00035750D02*
X00141610D01*
Y00031750D02*
X00142500Y00032640D01*
Y00034859D01*
X00141110Y00045250D02*
X00142000Y00044360D01*
Y00041390D02*
Y00044360D01*
X00135250Y00036640D02*
Y00039609D01*
Y00046140D02*
Y00050360D01*
X00136140Y00040500D02*
X00141110D01*
X00135250Y00046140D02*
X00136140Y00045250D01*
X00141110Y00040500D02*
X00142000Y00041390D01*
X00135250Y00050360D02*
X00136140Y00051250D01*
Y00045250D02*
X00141110D01*
X00135250Y00030860D02*
X00136140Y00031750D01*
X00141610D01*
X00136140Y00026250D02*
X00141110D01*
X00142000Y00025360D01*
Y00018000D02*
Y00025360D01*
X00135250Y00027140D02*
X00136140Y00026250D01*
X00135250Y00027140D02*
Y00030860D01*
X00142110Y00051250D02*
X00143000Y00052140D01*
X00136140Y00051250D02*
X00142110D01*
X00007890D02*
X00013860D01*
X00007000Y00052140D02*
X00007890Y00051250D01*
X00014750Y00027140D02*
Y00030860D01*
X00013860Y00026250D02*
X00014750Y00027140D01*
X00008000Y00018000D02*
Y00025360D01*
X00008890Y00026250D01*
X00013860D01*
X00008390Y00031750D02*
X00013860D01*
X00014750Y00030860D01*
X00008890Y00045250D02*
X00013860D01*
Y00051250D02*
X00014750Y00050360D01*
X00008000Y00041390D02*
X00008890Y00040500D01*
X00013860Y00045250D02*
X00014750Y00046140D01*
X00008890Y00040500D02*
X00013860D01*
X00014750Y00046140D02*
Y00050360D01*
Y00036640D02*
Y00039609D01*
X00008000Y00041390D02*
Y00044360D01*
X00008890Y00045250D01*
X00018250Y00015000D02*
Y00195000D01*
X00007500Y00032640D02*
Y00034859D01*
Y00032640D02*
X00008390Y00031750D01*
Y00035750D02*
X00013860D01*
Y00040500D02*
X00014750Y00039609D01*
X00007500Y00034859D02*
X00008390Y00035750D01*
X00013860D02*
X00014750Y00036640D01*
X00063750Y00195000D02*
X00063750Y00195000D01*
X00050750Y00015000D02*
X00050750Y00195000D01*
X00076750Y00015000D02*
X00076750Y00195000D01*
X00122250Y00015000D02*
Y00195000D01*
X00106000Y00015000D02*
X00106000Y00195000D01*
X00034500Y00195000D02*
X00037750D01*
X00041000Y00015000D02*
X00041000Y00015000D01*
X00060500D02*
Y00195000D01*
X00099500Y00015000D02*
Y00195000D01*
X00125500Y00015000D02*
Y00195000D01*
X00050750D02*
X00050750Y00195000D01*
X00128750Y00195000D02*
X00128750Y00195000D01*
X00060500Y00195000D02*
X00063750D01*
X00089750Y00015000D02*
X00089750Y00195000D01*
X00037750Y00015000D02*
X00037750Y00195000D01*
X00102750Y00195000D02*
X00102750Y00195000D01*
X00034500Y00015000D02*
Y00195000D01*
X00050750Y00015000D02*
X00054000D01*
X00024750D02*
X00024750Y00195000D01*
X00109250Y00015000D02*
Y00195000D01*
X00024750D02*
X00024750Y00195000D01*
X00073500Y00015000D02*
Y00195000D01*
X00047500Y00015000D02*
Y00195000D01*
X00028000Y00015000D02*
X00028000Y00015000D01*
X00093000Y00195000D02*
X00096250D01*
X00021500Y00195000D02*
X00024750D01*
X00057250Y00195000D02*
X00057250Y00195000D01*
X00037750D02*
X00037750Y00195000D01*
X00080000Y00015000D02*
X00080000Y00195000D01*
X00054000D02*
X00057250D01*
X00086500Y00015000D02*
Y00195000D01*
X00083250Y00015000D02*
Y00195000D01*
X00044250Y00015000D02*
Y00195000D01*
X00063750Y00015000D02*
X00063750Y00195000D01*
X00122250Y00195000D02*
X00122250Y00195000D01*
X00099500D02*
X00102750D01*
X00128750Y00015000D02*
X00128750Y00195000D01*
X00109250Y00195000D02*
X00109250Y00195000D01*
X00076750D02*
X00076750Y00195000D01*
X00115750Y00015000D02*
X00115750Y00195000D01*
X00115750Y00015000D02*
X00119000D01*
X00073500Y00195000D02*
X00076750D01*
X00115750D02*
X00115750Y00195000D01*
X00054000Y00015000D02*
X00054000Y00015000D01*
X00089750Y00195000D02*
X00089750Y00195000D01*
X00031250Y00195000D02*
X00031250Y00195000D01*
X00096250Y00015000D02*
Y00195000D01*
X00102750Y00015000D02*
X00102750Y00195000D01*
X00028000Y00195000D02*
X00031250D01*
X00112500Y00195000D02*
X00115750D01*
X00021500Y00015000D02*
Y00195000D01*
X00067000Y00015000D02*
X00067000Y00195000D01*
X00119000Y00015000D02*
X00119000Y00195000D01*
X00024750Y00015000D02*
X00028000D01*
X00080000D02*
X00080000Y00015000D01*
X00119000Y00015000D02*
X00119000Y00015000D01*
X00112500D02*
Y00195000D01*
X00044250Y00195000D02*
X00044250Y00195000D01*
X00119000Y00195000D02*
X00122250D01*
X00070250Y00015000D02*
Y00195000D01*
X00063750Y00015000D02*
X00067000D01*
X00102750D02*
X00106000D01*
X00047500Y00195000D02*
X00050750D01*
X00031250Y00015000D02*
Y00195000D01*
X00037750Y00015000D02*
X00041000D01*
X00128750D02*
X00132000D01*
X00057250Y00015000D02*
Y00195000D01*
X00125500D02*
X00128750D01*
X00054000Y00015000D02*
X00054000Y00195000D01*
X00106000Y00015000D02*
X00106000Y00015000D01*
X00067000Y00195000D02*
X00070250D01*
X00041000D02*
X00044250D01*
X00132000Y00015000D02*
X00132000Y00015000D01*
X00106000Y00195000D02*
X00109250D01*
X00067000Y00015000D02*
X00067000Y00015000D01*
X00070250Y00195000D02*
X00070250Y00195000D01*
X00086500D02*
X00089750D01*
X00096250Y00195000D02*
X00096250Y00195000D01*
X00089750Y00015000D02*
X00093000D01*
X00093000Y00015000D01*
X00080000Y00195000D02*
X00083250D01*
X00083250Y00195000D01*
X00076750Y00015000D02*
X00080000D01*
X00028000Y00015000D02*
X00028000Y00195000D01*
X00041000Y00015000D02*
X00041000Y00195000D01*
X00093000Y00015000D02*
X00093000Y00195000D01*
X00122250Y00015000D02*
X00125500D01*
X00109250D02*
X00112500D01*
X00096250D02*
X00099500D01*
X00083250D02*
X00086500D01*
X00070250D02*
X00073500D01*
X00057250D02*
X00060500D01*
X00044250D02*
X00047500D01*
X00031250D02*
X00034500D01*
X00018250D02*
X00021500D01*
M02*
