G04*
G04 #@! TF.GenerationSoftware,Altium Limited,Altium Designer,21.4.1 (30)*
G04*
G04 Layer_Physical_Order=1*
G04 Layer_Color=255*
%FSAX44Y44*%
%MOMM*%
G71*
G04*
G04 #@! TF.SameCoordinates,FC3D4518-3266-49AB-992B-672722C8420D*
G04*
G04*
G04 #@! TF.FilePolarity,Positive*
G04*
G01*
G75*
%ADD11O,1.0000X1.5000*%
%ADD14C,0.2540*%
D11*
X00192000Y00010500D02*
D03*
X00008000D02*
D03*
D14*
X00187250Y00018750D02*
Y00195250D01*
Y00018750D02*
X00189000Y00017000D01*
X00011250D02*
X00013000Y00018750D01*
Y00195250D01*
X00017250D01*
X00021500D02*
X00025750D01*
X00030000D02*
X00034250D01*
X00038500D02*
X00042750D01*
X00047000D02*
X00051250D01*
X00055500D02*
X00059750D01*
X00064000D02*
X00068250D01*
X00072500D02*
X00076750D01*
X00081000D02*
X00085250D01*
X00089500D02*
X00093750D01*
X00098000D02*
X00102250D01*
X00106500D02*
X00110750D01*
X00115000D02*
X00119250D01*
X00123500D02*
X00127750D01*
X00132000D02*
X00136250D01*
X00140500D02*
X00144750D01*
X00149000D02*
X00153250D01*
X00157500D02*
X00161750D01*
X00166000D02*
X00170250D01*
X00174500D02*
X00178750D01*
X00183000D02*
X00187250D01*
X00178750Y00005250D02*
X00183000D01*
X00170250D02*
X00174500D01*
X00161750D02*
X00166000D01*
X00153250D02*
X00157500D01*
X00144750D02*
X00149000D01*
X00136250D02*
X00140500D01*
X00127750D02*
X00132000D01*
X00119250D02*
X00123500D01*
X00110750D02*
X00115000D01*
X00102250D02*
X00106500D01*
X00093750D02*
X00098000D01*
X00085250D02*
X00089500D01*
X00076750D02*
X00081000D01*
X00068250D02*
X00072500D01*
X00059750D02*
X00064000D01*
X00051250D02*
X00055500D01*
X00042750D02*
X00047000D01*
X00034250D02*
X00038500D01*
X00025750D02*
X00030000D01*
X00017250D02*
X00021500D01*
X00183000D02*
Y00195250D01*
X00178750Y00005250D02*
Y00195250D01*
X00174500Y00005250D02*
Y00195250D01*
X00170250Y00005250D02*
Y00195250D01*
X00166000Y00005250D02*
Y00195250D01*
X00161750Y00005250D02*
Y00195250D01*
X00157500Y00005250D02*
Y00195250D01*
X00153250Y00005250D02*
Y00195250D01*
X00085250Y00005250D02*
Y00195250D01*
X00089500Y00005250D02*
Y00195250D01*
X00093750Y00005250D02*
Y00195250D01*
X00098000Y00005250D02*
Y00195250D01*
X00115000Y00005250D02*
Y00195250D01*
X00110750Y00005250D02*
Y00195250D01*
X00106500Y00005250D02*
Y00195250D01*
X00102250Y00005250D02*
Y00195250D01*
X00136250Y00005250D02*
Y00195250D01*
X00140500Y00005250D02*
Y00195250D01*
X00144750Y00005250D02*
Y00195250D01*
X00149000Y00005250D02*
Y00195250D01*
X00132000Y00005250D02*
Y00195250D01*
X00127750Y00005250D02*
Y00195250D01*
X00123500Y00005250D02*
Y00195250D01*
X00119250Y00005250D02*
Y00195250D01*
X00051250Y00005250D02*
Y00195250D01*
X00055500Y00005250D02*
Y00195250D01*
X00059750Y00005250D02*
Y00195250D01*
X00064000Y00005250D02*
Y00195250D01*
X00081000Y00005250D02*
Y00195250D01*
X00076750Y00005250D02*
Y00195250D01*
X00072500Y00005250D02*
Y00195250D01*
X00068250Y00005250D02*
Y00195250D01*
X00034250Y00005250D02*
Y00195250D01*
X00038500Y00005250D02*
Y00195250D01*
X00042750Y00005250D02*
Y00195250D01*
X00047000Y00005250D02*
Y00195250D01*
X00030000Y00005250D02*
Y00195250D01*
X00025750Y00005250D02*
Y00195250D01*
X00021500Y00005250D02*
Y00195250D01*
X00017250Y00005250D02*
Y00195250D01*
M02*
