G04*
G04 #@! TF.GenerationSoftware,Altium Limited,Altium Designer,21.4.1 (30)*
G04*
G04 Layer_Color=65535*
%FSAX44Y44*%
%MOMM*%
G71*
G04*
G04 #@! TF.SameCoordinates,FC3D4518-3266-49AB-992B-672722C8420D*
G04*
G04*
G04 #@! TF.FilePolarity,Positive*
G04*
G01*
G75*
%ADD10C,0.1500*%
D10*
X00188252Y00138559D02*
X00193584Y00134750D01*
Y00140463D01*
X00188252Y00138559D02*
X00196250D01*
X00195488Y00142253D02*
X00195869Y00141872D01*
X00196250Y00142253D01*
X00195869Y00142634D01*
X00195488Y00142253D01*
X00188252Y00148956D02*
Y00145148D01*
X00191680Y00144767D01*
X00191299Y00145148D01*
X00190918Y00146290D01*
Y00147433D01*
X00191299Y00148576D01*
X00192060Y00149337D01*
X00193203Y00149718D01*
X00193965D01*
X00195107Y00149337D01*
X00195869Y00148576D01*
X00196250Y00147433D01*
Y00146290D01*
X00195869Y00145148D01*
X00195488Y00144767D01*
X00194727Y00144386D01*
X00188252Y00151508D02*
X00196250Y00154555D01*
X00188252Y00157602D02*
X00196250Y00154555D01*
X00190918Y00169866D02*
X00192060Y00169485D01*
X00192822Y00168724D01*
X00193203Y00167581D01*
Y00167200D01*
X00192822Y00166058D01*
X00192060Y00165296D01*
X00190918Y00164915D01*
X00190537D01*
X00189394Y00165296D01*
X00188633Y00166058D01*
X00188252Y00167200D01*
Y00167581D01*
X00188633Y00168724D01*
X00189394Y00169485D01*
X00190918Y00169866D01*
X00192822D01*
X00194727Y00169485D01*
X00195869Y00168724D01*
X00196250Y00167581D01*
Y00166819D01*
X00195869Y00165677D01*
X00195107Y00165296D01*
X00195488Y00172418D02*
X00195869Y00172037D01*
X00196250Y00172418D01*
X00195869Y00172799D01*
X00195488Y00172418D01*
X00190918Y00179502D02*
X00192060Y00179121D01*
X00192822Y00178360D01*
X00193203Y00177217D01*
Y00176836D01*
X00192822Y00175694D01*
X00192060Y00174932D01*
X00190918Y00174551D01*
X00190537D01*
X00189394Y00174932D01*
X00188633Y00175694D01*
X00188252Y00176836D01*
Y00177217D01*
X00188633Y00178360D01*
X00189394Y00179121D01*
X00190918Y00179502D01*
X00192822D01*
X00194727Y00179121D01*
X00195869Y00178360D01*
X00196250Y00177217D01*
Y00176455D01*
X00195869Y00175313D01*
X00195107Y00174932D01*
X00188252Y00185482D02*
X00193584Y00181673D01*
Y00187386D01*
X00188252Y00185482D02*
X00196250D01*
X00188252Y00188796D02*
X00196250Y00190700D01*
X00188252Y00192604D02*
X00196250Y00190700D01*
X00188252Y00192604D02*
X00196250Y00194509D01*
X00188252Y00196413D02*
X00196250Y00194509D01*
X00005156Y00107631D02*
X00004775D01*
X00004013Y00108012D01*
X00003633Y00108393D01*
X00003252Y00109154D01*
Y00110678D01*
X00003633Y00111440D01*
X00004013Y00111820D01*
X00004775Y00112201D01*
X00005537D01*
X00006299Y00111820D01*
X00007441Y00111059D01*
X00011250Y00107250D01*
Y00112582D01*
X00010488Y00114753D02*
X00010869Y00114372D01*
X00011250Y00114753D01*
X00010869Y00115134D01*
X00010488Y00114753D01*
X00005156Y00117267D02*
X00004775D01*
X00004013Y00117648D01*
X00003633Y00118029D01*
X00003252Y00118790D01*
Y00120314D01*
X00003633Y00121076D01*
X00004013Y00121456D01*
X00004775Y00121837D01*
X00005537D01*
X00006299Y00121456D01*
X00007441Y00120695D01*
X00011250Y00116886D01*
Y00122218D01*
X00004775Y00124008D02*
X00004394Y00124770D01*
X00003252Y00125913D01*
X00011250D01*
Y00135968D02*
X00003252Y00132921D01*
X00011250Y00129874D01*
X00008584Y00131016D02*
Y00134825D01*
X00005156Y00144499D02*
X00004775D01*
X00004013Y00144880D01*
X00003633Y00145261D01*
X00003252Y00146023D01*
Y00147546D01*
X00003633Y00148308D01*
X00004013Y00148689D01*
X00004775Y00149070D01*
X00005537D01*
X00006299Y00148689D01*
X00007441Y00147927D01*
X00011250Y00144118D01*
Y00149451D01*
X00010488Y00151621D02*
X00010869Y00151241D01*
X00011250Y00151621D01*
X00010869Y00152002D01*
X00010488Y00151621D01*
X00003252Y00156040D02*
X00003633Y00154897D01*
X00004775Y00154135D01*
X00006680Y00153754D01*
X00007822D01*
X00009726Y00154135D01*
X00010869Y00154897D01*
X00011250Y00156040D01*
Y00156801D01*
X00010869Y00157944D01*
X00009726Y00158706D01*
X00007822Y00159087D01*
X00006680D01*
X00004775Y00158706D01*
X00003633Y00157944D01*
X00003252Y00156801D01*
Y00156040D01*
Y00164685D02*
X00008584Y00160877D01*
Y00166590D01*
X00003252Y00164685D02*
X00011250D01*
X00003252Y00170284D02*
X00003633Y00169522D01*
X00004394Y00168761D01*
X00005156Y00168380D01*
X00006299Y00167999D01*
X00008203D01*
X00009346Y00168380D01*
X00010107Y00168761D01*
X00010869Y00169522D01*
X00011250Y00170284D01*
Y00171808D01*
X00010869Y00172569D01*
X00010107Y00173331D01*
X00009346Y00173712D01*
X00008203Y00174093D01*
X00006299D01*
X00005156Y00173712D01*
X00004394Y00173331D01*
X00003633Y00172569D01*
X00003252Y00171808D01*
Y00170284D01*
Y00175959D02*
X00011250D01*
X00007441D02*
X00006299Y00177102D01*
X00005918Y00177864D01*
Y00179006D01*
X00006299Y00179768D01*
X00007441Y00180149D01*
X00011250D01*
X00005918Y00182243D02*
X00011250D01*
X00007441D02*
X00006299Y00183386D01*
X00005918Y00184148D01*
Y00185290D01*
X00006299Y00186052D01*
X00007441Y00186433D01*
X00011250D01*
X00007441D02*
X00006299Y00187576D01*
X00005918Y00188337D01*
Y00189480D01*
X00006299Y00190242D01*
X00007441Y00190623D01*
X00011250D01*
X00007060Y00197326D02*
X00006299Y00196945D01*
X00005918Y00195802D01*
Y00194660D01*
X00006299Y00193517D01*
X00007060Y00193136D01*
X00007822Y00193517D01*
X00008203Y00194279D01*
X00008584Y00196183D01*
X00008965Y00196945D01*
X00009726Y00197326D01*
X00010107D01*
X00010869Y00196945D01*
X00011250Y00195802D01*
Y00194660D01*
X00010869Y00193517D01*
X00010107Y00193136D01*
M02*
