G04*
G04 #@! TF.GenerationSoftware,Altium Limited,Altium Designer,21.4.1 (30)*
G04*
G04 Layer_Color=65535*
%FSAX44Y44*%
%MOMM*%
G71*
G04*
G04 #@! TF.SameCoordinates,300F7DDE-1E85-4507-BB81-479D1E03A725*
G04*
G04*
G04 #@! TF.FilePolarity,Positive*
G04*
G01*
G75*
%ADD10C,0.1500*%
D10*
X00188252Y00138559D02*
X00193584Y00134750D01*
Y00140463D01*
X00188252Y00138559D02*
X00196250D01*
X00195488Y00142253D02*
X00195869Y00141872D01*
X00196250Y00142253D01*
X00195869Y00142634D01*
X00195488Y00142253D01*
X00188252Y00148956D02*
Y00145148D01*
X00191680Y00144767D01*
X00191299Y00145148D01*
X00190918Y00146290D01*
Y00147433D01*
X00191299Y00148576D01*
X00192060Y00149337D01*
X00193203Y00149718D01*
X00193965D01*
X00195107Y00149337D01*
X00195869Y00148576D01*
X00196250Y00147433D01*
Y00146290D01*
X00195869Y00145148D01*
X00195488Y00144767D01*
X00194727Y00144386D01*
X00188252Y00151508D02*
X00196250Y00154555D01*
X00188252Y00157602D02*
X00196250Y00154555D01*
X00188252Y00166819D02*
X00188633Y00165677D01*
X00189394Y00165296D01*
X00190156D01*
X00190918Y00165677D01*
X00191299Y00166439D01*
X00191680Y00167962D01*
X00192060Y00169104D01*
X00192822Y00169866D01*
X00193584Y00170247D01*
X00194727D01*
X00195488Y00169866D01*
X00195869Y00169485D01*
X00196250Y00168343D01*
Y00166819D01*
X00195869Y00165677D01*
X00195488Y00165296D01*
X00194727Y00164915D01*
X00193584D01*
X00192822Y00165296D01*
X00192060Y00166058D01*
X00191680Y00167200D01*
X00191299Y00168724D01*
X00190918Y00169485D01*
X00190156Y00169866D01*
X00189394D01*
X00188633Y00169485D01*
X00188252Y00168343D01*
Y00166819D01*
X00195488Y00172418D02*
X00195869Y00172037D01*
X00196250Y00172418D01*
X00195869Y00172799D01*
X00195488Y00172418D01*
X00188252Y00175313D02*
Y00179502D01*
X00191299Y00177217D01*
Y00178360D01*
X00191680Y00179121D01*
X00192060Y00179502D01*
X00193203Y00179883D01*
X00193965D01*
X00195107Y00179502D01*
X00195869Y00178741D01*
X00196250Y00177598D01*
Y00176455D01*
X00195869Y00175313D01*
X00195488Y00174932D01*
X00194727Y00174551D01*
X00188252Y00187006D02*
X00196250Y00183197D01*
X00188252Y00181673D02*
Y00187006D01*
Y00188796D02*
X00196250Y00190700D01*
X00188252Y00192604D02*
X00196250Y00190700D01*
X00188252Y00192604D02*
X00196250Y00194509D01*
X00188252Y00196413D02*
X00196250Y00194509D01*
X00004525Y00107500D02*
X00004144Y00108262D01*
X00003002Y00109404D01*
X00011000D01*
X00010238Y00113746D02*
X00010619Y00113365D01*
X00011000Y00113746D01*
X00010619Y00114127D01*
X00010238Y00113746D01*
X00003002Y00117783D02*
X00003383Y00116641D01*
X00004144Y00116260D01*
X00004906D01*
X00005668Y00116641D01*
X00006049Y00117403D01*
X00006430Y00118926D01*
X00006811Y00120069D01*
X00007572Y00120830D01*
X00008334Y00121211D01*
X00009477D01*
X00010238Y00120830D01*
X00010619Y00120450D01*
X00011000Y00119307D01*
Y00117783D01*
X00010619Y00116641D01*
X00010238Y00116260D01*
X00009477Y00115879D01*
X00008334D01*
X00007572Y00116260D01*
X00006811Y00117022D01*
X00006430Y00118164D01*
X00006049Y00119688D01*
X00005668Y00120450D01*
X00004906Y00120830D01*
X00004144D01*
X00003383Y00120450D01*
X00003002Y00119307D01*
Y00117783D01*
X00004144Y00127572D02*
X00003383Y00127191D01*
X00003002Y00126048D01*
Y00125287D01*
X00003383Y00124144D01*
X00004525Y00123382D01*
X00006430Y00123001D01*
X00008334D01*
X00009857Y00123382D01*
X00010619Y00124144D01*
X00011000Y00125287D01*
Y00125667D01*
X00010619Y00126810D01*
X00009857Y00127572D01*
X00008715Y00127953D01*
X00008334D01*
X00007191Y00127572D01*
X00006430Y00126810D01*
X00006049Y00125667D01*
Y00125287D01*
X00006430Y00124144D01*
X00007191Y00123382D01*
X00008334Y00123001D01*
X00011000Y00135799D02*
X00003002Y00132752D01*
X00011000Y00129705D01*
X00008334Y00130847D02*
Y00134656D01*
X00004906Y00144330D02*
X00004525D01*
X00003763Y00144711D01*
X00003383Y00145092D01*
X00003002Y00145854D01*
Y00147377D01*
X00003383Y00148139D01*
X00003763Y00148520D01*
X00004525Y00148901D01*
X00005287D01*
X00006049Y00148520D01*
X00007191Y00147758D01*
X00011000Y00143949D01*
Y00149282D01*
X00010238Y00151453D02*
X00010619Y00151072D01*
X00011000Y00151453D01*
X00010619Y00151833D01*
X00010238Y00151453D01*
X00003002Y00157394D02*
X00008334Y00153585D01*
Y00159298D01*
X00003002Y00157394D02*
X00011000D01*
X00004906Y00161089D02*
X00004525D01*
X00003763Y00161469D01*
X00003383Y00161850D01*
X00003002Y00162612D01*
Y00164135D01*
X00003383Y00164897D01*
X00003763Y00165278D01*
X00004525Y00165659D01*
X00005287D01*
X00006049Y00165278D01*
X00007191Y00164516D01*
X00011000Y00160708D01*
Y00166040D01*
X00003002Y00170115D02*
X00003383Y00169354D01*
X00004144Y00168592D01*
X00004906Y00168211D01*
X00006049Y00167830D01*
X00007953D01*
X00009096Y00168211D01*
X00009857Y00168592D01*
X00010619Y00169354D01*
X00011000Y00170115D01*
Y00171639D01*
X00010619Y00172400D01*
X00009857Y00173162D01*
X00009096Y00173543D01*
X00007953Y00173924D01*
X00006049D01*
X00004906Y00173543D01*
X00004144Y00173162D01*
X00003383Y00172400D01*
X00003002Y00171639D01*
Y00170115D01*
Y00175790D02*
X00011000D01*
X00007191D02*
X00006049Y00176933D01*
X00005668Y00177694D01*
Y00178837D01*
X00006049Y00179599D01*
X00007191Y00179980D01*
X00011000D01*
X00005668Y00182075D02*
X00011000D01*
X00007191D02*
X00006049Y00183217D01*
X00005668Y00183979D01*
Y00185121D01*
X00006049Y00185883D01*
X00007191Y00186264D01*
X00011000D01*
X00007191D02*
X00006049Y00187407D01*
X00005668Y00188169D01*
Y00189311D01*
X00006049Y00190073D01*
X00007191Y00190454D01*
X00011000D01*
X00006811Y00197157D02*
X00006049Y00196776D01*
X00005668Y00195634D01*
Y00194491D01*
X00006049Y00193348D01*
X00006811Y00192967D01*
X00007572Y00193348D01*
X00007953Y00194110D01*
X00008334Y00196014D01*
X00008715Y00196776D01*
X00009477Y00197157D01*
X00009857D01*
X00010619Y00196776D01*
X00011000Y00195634D01*
Y00194491D01*
X00010619Y00193348D01*
X00009857Y00192967D01*
M02*
